G04 MADE WITH FRITZING*
G04 WWW.FRITZING.ORG*
G04 DOUBLE SIDED*
G04 HOLES PLATED*
G04 CONTOUR ON CENTER OF CONTOUR VECTOR*
%ASAXBY*%
%FSLAX23Y23*%
%MOIN*%
%OFA0B0*%
%SFA1.0B1.0*%
%ADD10C,0.075000*%
%ADD11C,0.074667*%
%ADD12C,0.074695*%
%ADD13C,0.062992*%
%ADD14C,0.082000*%
%ADD15C,0.078000*%
%ADD16C,0.080000*%
%ADD17R,0.062992X0.062992*%
%ADD18R,0.082000X0.082000*%
%ADD19R,0.078000X0.078000*%
%ADD20R,0.080000X0.080000*%
%ADD21C,0.024000*%
%LNCOPPER1*%
G90*
G70*
G54D10*
X3772Y1969D03*
X2098Y1972D03*
X120Y2190D03*
X423Y1744D03*
G54D11*
X1691Y2085D03*
X1791Y2085D03*
X1891Y2085D03*
X1991Y2085D03*
G54D12*
X2091Y2085D03*
G54D11*
X2191Y2085D03*
X2291Y2085D03*
X2391Y2085D03*
X2491Y2085D03*
G54D12*
X2591Y2085D03*
G54D11*
X2691Y2085D03*
G54D12*
X2791Y2085D03*
G54D11*
X2891Y2085D03*
X2991Y2085D03*
X3091Y2085D03*
X3191Y2085D03*
G54D12*
X3291Y2085D03*
G54D11*
X3391Y2085D03*
X3491Y2085D03*
X3591Y2085D03*
X3591Y2185D03*
X3491Y2185D03*
X3391Y2185D03*
G54D12*
X3291Y2185D03*
G54D11*
X3191Y2185D03*
X3091Y2185D03*
X2991Y2185D03*
X2891Y2185D03*
G54D12*
X2791Y2185D03*
G54D11*
X2691Y2185D03*
G54D12*
X2591Y2185D03*
G54D11*
X2491Y2185D03*
X2391Y2185D03*
X2291Y2185D03*
X2191Y2185D03*
G54D12*
X2091Y2185D03*
G54D11*
X1991Y2185D03*
X1891Y2185D03*
X1791Y2185D03*
X1691Y2185D03*
G54D10*
X291Y2085D03*
X291Y1985D03*
X291Y1885D03*
X1991Y1985D03*
X1591Y1985D03*
X91Y1479D03*
X91Y1735D03*
X268Y1479D03*
X268Y1735D03*
G54D13*
X191Y1185D03*
X191Y1086D03*
G54D10*
X191Y885D03*
X191Y485D03*
G54D14*
X991Y2185D03*
X693Y2185D03*
G54D15*
X1241Y2185D03*
X1141Y2185D03*
G54D16*
X191Y323D03*
X191Y185D03*
G54D15*
X453Y185D03*
X1241Y185D03*
X453Y1957D03*
X1241Y1957D03*
G54D17*
X191Y1185D03*
G54D18*
X992Y2185D03*
G54D19*
X1241Y2185D03*
G54D20*
X191Y323D03*
X1241Y186D03*
G54D19*
X454Y186D03*
X454Y1957D03*
X1241Y1957D03*
G54D21*
X3690Y2234D02*
X3641Y2286D01*
D02*
X3690Y1935D02*
X3690Y2234D01*
D02*
X3641Y1884D02*
X3690Y1935D01*
D02*
X3641Y2286D02*
X2042Y2286D01*
D02*
X2042Y2286D02*
X1990Y2234D01*
D02*
X1990Y2234D02*
X1990Y2217D01*
D02*
X242Y1585D02*
X290Y1585D01*
D02*
X290Y1585D02*
X342Y1634D01*
D02*
X342Y1786D02*
X391Y1835D01*
D02*
X1390Y1884D02*
X3641Y1884D01*
D02*
X342Y1634D02*
X342Y1786D01*
D02*
X1341Y1835D02*
X1390Y1884D01*
D02*
X190Y1536D02*
X242Y1585D01*
D02*
X191Y1212D02*
X190Y1536D01*
D02*
X391Y1835D02*
X1341Y1835D01*
D02*
X291Y1785D02*
X280Y1761D01*
D02*
X291Y1856D02*
X291Y1785D01*
D02*
X291Y537D02*
X291Y1437D01*
D02*
X291Y1437D02*
X282Y1454D01*
D02*
X239Y485D02*
X291Y537D01*
D02*
X219Y485D02*
X239Y485D01*
D02*
X1391Y2035D02*
X1341Y1985D01*
D02*
X1341Y1985D02*
X1291Y1985D01*
D02*
X1391Y2237D02*
X1391Y2035D01*
D02*
X1443Y2285D02*
X1391Y2237D01*
D02*
X1291Y1985D02*
X1267Y1971D01*
D02*
X1839Y2285D02*
X1443Y2285D01*
D02*
X1891Y2237D02*
X1839Y2285D01*
D02*
X1891Y2217D02*
X1891Y2237D01*
D02*
X1139Y1885D02*
X319Y1885D01*
D02*
X1191Y1933D02*
X1139Y1885D01*
D02*
X1214Y1944D02*
X1191Y1933D01*
G36*
X3706Y2283D02*
X3706Y2263D01*
X3708Y2263D01*
X3708Y2261D01*
X3710Y2261D01*
X3710Y2259D01*
X3712Y2259D01*
X3712Y2257D01*
X3714Y2257D01*
X3714Y2255D01*
X3716Y2255D01*
X3716Y2251D01*
X3718Y2251D01*
X3718Y2247D01*
X3720Y2247D01*
X3720Y2243D01*
X3722Y2243D01*
X3722Y2195D01*
X3800Y2195D01*
X3800Y2193D01*
X3808Y2193D01*
X3808Y2191D01*
X3814Y2191D01*
X3814Y2189D01*
X3818Y2189D01*
X3818Y2187D01*
X3822Y2187D01*
X3822Y2185D01*
X3826Y2185D01*
X3826Y2183D01*
X3830Y2183D01*
X3830Y2181D01*
X3832Y2181D01*
X3832Y2179D01*
X3834Y2179D01*
X3834Y2177D01*
X3854Y2177D01*
X3854Y2283D01*
X3706Y2283D01*
G37*
D02*
G36*
X3722Y2195D02*
X3722Y2181D01*
X3742Y2181D01*
X3742Y2183D01*
X3744Y2183D01*
X3744Y2185D01*
X3748Y2185D01*
X3748Y2187D01*
X3752Y2187D01*
X3752Y2189D01*
X3756Y2189D01*
X3756Y2191D01*
X3762Y2191D01*
X3762Y2193D01*
X3770Y2193D01*
X3770Y2195D01*
X3722Y2195D01*
G37*
D02*
G36*
X3834Y2055D02*
X3834Y2053D01*
X3830Y2053D01*
X3830Y2051D01*
X3828Y2051D01*
X3828Y2049D01*
X3824Y2049D01*
X3824Y2047D01*
X3820Y2047D01*
X3820Y2045D01*
X3816Y2045D01*
X3816Y2043D01*
X3812Y2043D01*
X3812Y2041D01*
X3804Y2041D01*
X3804Y2039D01*
X3794Y2039D01*
X3794Y2037D01*
X3854Y2037D01*
X3854Y2055D01*
X3834Y2055D01*
G37*
D02*
G36*
X3722Y2051D02*
X3722Y2037D01*
X3778Y2037D01*
X3778Y2039D01*
X3766Y2039D01*
X3766Y2041D01*
X3760Y2041D01*
X3760Y2043D01*
X3754Y2043D01*
X3754Y2045D01*
X3750Y2045D01*
X3750Y2047D01*
X3746Y2047D01*
X3746Y2049D01*
X3742Y2049D01*
X3742Y2051D01*
X3722Y2051D01*
G37*
D02*
G36*
X3722Y2037D02*
X3722Y2035D01*
X3854Y2035D01*
X3854Y2037D01*
X3722Y2037D01*
G37*
D02*
G36*
X3722Y2037D02*
X3722Y2035D01*
X3854Y2035D01*
X3854Y2037D01*
X3722Y2037D01*
G37*
D02*
G36*
X3722Y2035D02*
X3722Y1927D01*
X3720Y1927D01*
X3720Y1923D01*
X3718Y1923D01*
X3718Y1919D01*
X3716Y1919D01*
X3716Y1915D01*
X3714Y1915D01*
X3714Y1913D01*
X3712Y1913D01*
X3712Y1911D01*
X3710Y1911D01*
X3710Y1909D01*
X3708Y1909D01*
X3708Y1907D01*
X3706Y1907D01*
X3706Y1905D01*
X3704Y1905D01*
X3704Y1903D01*
X3702Y1903D01*
X3702Y1901D01*
X3700Y1901D01*
X3700Y1899D01*
X3698Y1899D01*
X3698Y1897D01*
X3696Y1897D01*
X3696Y1895D01*
X3694Y1895D01*
X3694Y1891D01*
X3692Y1891D01*
X3692Y1889D01*
X3690Y1889D01*
X3690Y1887D01*
X3688Y1887D01*
X3688Y1885D01*
X3686Y1885D01*
X3686Y1883D01*
X3684Y1883D01*
X3684Y1881D01*
X3682Y1881D01*
X3682Y1879D01*
X3680Y1879D01*
X3680Y1877D01*
X3678Y1877D01*
X3678Y1875D01*
X3676Y1875D01*
X3676Y1873D01*
X3674Y1873D01*
X3674Y1871D01*
X3672Y1871D01*
X3672Y1869D01*
X3670Y1869D01*
X3670Y1849D01*
X3854Y1849D01*
X3854Y2035D01*
X3722Y2035D01*
G37*
D02*
G36*
X3638Y2055D02*
X3638Y2051D01*
X3636Y2051D01*
X3636Y2049D01*
X3634Y2049D01*
X3634Y2047D01*
X3632Y2047D01*
X3632Y2045D01*
X3630Y2045D01*
X3630Y2043D01*
X3628Y2043D01*
X3628Y2041D01*
X3626Y2041D01*
X3626Y2039D01*
X3624Y2039D01*
X3624Y2037D01*
X3620Y2037D01*
X3620Y2035D01*
X3616Y2035D01*
X3616Y2033D01*
X3612Y2033D01*
X3612Y2031D01*
X3606Y2031D01*
X3606Y2029D01*
X3594Y2029D01*
X3594Y2027D01*
X3658Y2027D01*
X3658Y2055D01*
X3638Y2055D01*
G37*
D02*
G36*
X2130Y2045D02*
X2130Y2043D01*
X2128Y2043D01*
X2128Y2041D01*
X2126Y2041D01*
X2126Y2039D01*
X2124Y2039D01*
X2124Y2037D01*
X2120Y2037D01*
X2120Y2035D01*
X2116Y2035D01*
X2116Y2033D01*
X2112Y2033D01*
X2112Y2031D01*
X2106Y2031D01*
X2106Y2029D01*
X2094Y2029D01*
X2094Y2027D01*
X2188Y2027D01*
X2188Y2029D01*
X2176Y2029D01*
X2176Y2031D01*
X2170Y2031D01*
X2170Y2033D01*
X2164Y2033D01*
X2164Y2035D01*
X2162Y2035D01*
X2162Y2037D01*
X2158Y2037D01*
X2158Y2039D01*
X2156Y2039D01*
X2156Y2041D01*
X2154Y2041D01*
X2154Y2043D01*
X2150Y2043D01*
X2150Y2045D01*
X2130Y2045D01*
G37*
D02*
G36*
X2230Y2045D02*
X2230Y2043D01*
X2228Y2043D01*
X2228Y2041D01*
X2226Y2041D01*
X2226Y2039D01*
X2224Y2039D01*
X2224Y2037D01*
X2220Y2037D01*
X2220Y2035D01*
X2216Y2035D01*
X2216Y2033D01*
X2212Y2033D01*
X2212Y2031D01*
X2206Y2031D01*
X2206Y2029D01*
X2194Y2029D01*
X2194Y2027D01*
X2288Y2027D01*
X2288Y2029D01*
X2276Y2029D01*
X2276Y2031D01*
X2270Y2031D01*
X2270Y2033D01*
X2264Y2033D01*
X2264Y2035D01*
X2262Y2035D01*
X2262Y2037D01*
X2258Y2037D01*
X2258Y2039D01*
X2256Y2039D01*
X2256Y2041D01*
X2254Y2041D01*
X2254Y2043D01*
X2250Y2043D01*
X2250Y2045D01*
X2230Y2045D01*
G37*
D02*
G36*
X2330Y2045D02*
X2330Y2043D01*
X2328Y2043D01*
X2328Y2041D01*
X2326Y2041D01*
X2326Y2039D01*
X2324Y2039D01*
X2324Y2037D01*
X2320Y2037D01*
X2320Y2035D01*
X2316Y2035D01*
X2316Y2033D01*
X2312Y2033D01*
X2312Y2031D01*
X2306Y2031D01*
X2306Y2029D01*
X2294Y2029D01*
X2294Y2027D01*
X2388Y2027D01*
X2388Y2029D01*
X2376Y2029D01*
X2376Y2031D01*
X2370Y2031D01*
X2370Y2033D01*
X2364Y2033D01*
X2364Y2035D01*
X2362Y2035D01*
X2362Y2037D01*
X2358Y2037D01*
X2358Y2039D01*
X2356Y2039D01*
X2356Y2041D01*
X2354Y2041D01*
X2354Y2043D01*
X2350Y2043D01*
X2350Y2045D01*
X2330Y2045D01*
G37*
D02*
G36*
X2430Y2045D02*
X2430Y2043D01*
X2428Y2043D01*
X2428Y2041D01*
X2426Y2041D01*
X2426Y2039D01*
X2424Y2039D01*
X2424Y2037D01*
X2420Y2037D01*
X2420Y2035D01*
X2416Y2035D01*
X2416Y2033D01*
X2412Y2033D01*
X2412Y2031D01*
X2406Y2031D01*
X2406Y2029D01*
X2394Y2029D01*
X2394Y2027D01*
X2488Y2027D01*
X2488Y2029D01*
X2476Y2029D01*
X2476Y2031D01*
X2470Y2031D01*
X2470Y2033D01*
X2464Y2033D01*
X2464Y2035D01*
X2462Y2035D01*
X2462Y2037D01*
X2458Y2037D01*
X2458Y2039D01*
X2456Y2039D01*
X2456Y2041D01*
X2454Y2041D01*
X2454Y2043D01*
X2450Y2043D01*
X2450Y2045D01*
X2430Y2045D01*
G37*
D02*
G36*
X2530Y2045D02*
X2530Y2043D01*
X2528Y2043D01*
X2528Y2041D01*
X2526Y2041D01*
X2526Y2039D01*
X2524Y2039D01*
X2524Y2037D01*
X2520Y2037D01*
X2520Y2035D01*
X2516Y2035D01*
X2516Y2033D01*
X2512Y2033D01*
X2512Y2031D01*
X2506Y2031D01*
X2506Y2029D01*
X2494Y2029D01*
X2494Y2027D01*
X2586Y2027D01*
X2586Y2029D01*
X2576Y2029D01*
X2576Y2031D01*
X2570Y2031D01*
X2570Y2033D01*
X2564Y2033D01*
X2564Y2035D01*
X2562Y2035D01*
X2562Y2037D01*
X2558Y2037D01*
X2558Y2039D01*
X2556Y2039D01*
X2556Y2041D01*
X2554Y2041D01*
X2554Y2043D01*
X2550Y2043D01*
X2550Y2045D01*
X2530Y2045D01*
G37*
D02*
G36*
X2630Y2045D02*
X2630Y2043D01*
X2628Y2043D01*
X2628Y2041D01*
X2626Y2041D01*
X2626Y2039D01*
X2624Y2039D01*
X2624Y2037D01*
X2620Y2037D01*
X2620Y2035D01*
X2616Y2035D01*
X2616Y2033D01*
X2612Y2033D01*
X2612Y2031D01*
X2606Y2031D01*
X2606Y2029D01*
X2594Y2029D01*
X2594Y2027D01*
X2688Y2027D01*
X2688Y2029D01*
X2676Y2029D01*
X2676Y2031D01*
X2670Y2031D01*
X2670Y2033D01*
X2664Y2033D01*
X2664Y2035D01*
X2662Y2035D01*
X2662Y2037D01*
X2658Y2037D01*
X2658Y2039D01*
X2656Y2039D01*
X2656Y2041D01*
X2654Y2041D01*
X2654Y2043D01*
X2650Y2043D01*
X2650Y2045D01*
X2630Y2045D01*
G37*
D02*
G36*
X2730Y2045D02*
X2730Y2043D01*
X2728Y2043D01*
X2728Y2041D01*
X2726Y2041D01*
X2726Y2039D01*
X2724Y2039D01*
X2724Y2037D01*
X2720Y2037D01*
X2720Y2035D01*
X2716Y2035D01*
X2716Y2033D01*
X2712Y2033D01*
X2712Y2031D01*
X2706Y2031D01*
X2706Y2029D01*
X2694Y2029D01*
X2694Y2027D01*
X2786Y2027D01*
X2786Y2029D01*
X2776Y2029D01*
X2776Y2031D01*
X2770Y2031D01*
X2770Y2033D01*
X2764Y2033D01*
X2764Y2035D01*
X2762Y2035D01*
X2762Y2037D01*
X2758Y2037D01*
X2758Y2039D01*
X2756Y2039D01*
X2756Y2041D01*
X2754Y2041D01*
X2754Y2043D01*
X2750Y2043D01*
X2750Y2045D01*
X2730Y2045D01*
G37*
D02*
G36*
X2830Y2045D02*
X2830Y2043D01*
X2828Y2043D01*
X2828Y2041D01*
X2826Y2041D01*
X2826Y2039D01*
X2824Y2039D01*
X2824Y2037D01*
X2820Y2037D01*
X2820Y2035D01*
X2816Y2035D01*
X2816Y2033D01*
X2812Y2033D01*
X2812Y2031D01*
X2806Y2031D01*
X2806Y2029D01*
X2794Y2029D01*
X2794Y2027D01*
X2888Y2027D01*
X2888Y2029D01*
X2876Y2029D01*
X2876Y2031D01*
X2870Y2031D01*
X2870Y2033D01*
X2864Y2033D01*
X2864Y2035D01*
X2862Y2035D01*
X2862Y2037D01*
X2858Y2037D01*
X2858Y2039D01*
X2856Y2039D01*
X2856Y2041D01*
X2854Y2041D01*
X2854Y2043D01*
X2850Y2043D01*
X2850Y2045D01*
X2830Y2045D01*
G37*
D02*
G36*
X2930Y2045D02*
X2930Y2043D01*
X2928Y2043D01*
X2928Y2041D01*
X2926Y2041D01*
X2926Y2039D01*
X2924Y2039D01*
X2924Y2037D01*
X2920Y2037D01*
X2920Y2035D01*
X2916Y2035D01*
X2916Y2033D01*
X2912Y2033D01*
X2912Y2031D01*
X2906Y2031D01*
X2906Y2029D01*
X2894Y2029D01*
X2894Y2027D01*
X2988Y2027D01*
X2988Y2029D01*
X2976Y2029D01*
X2976Y2031D01*
X2970Y2031D01*
X2970Y2033D01*
X2964Y2033D01*
X2964Y2035D01*
X2962Y2035D01*
X2962Y2037D01*
X2958Y2037D01*
X2958Y2039D01*
X2956Y2039D01*
X2956Y2041D01*
X2954Y2041D01*
X2954Y2043D01*
X2950Y2043D01*
X2950Y2045D01*
X2930Y2045D01*
G37*
D02*
G36*
X3030Y2045D02*
X3030Y2043D01*
X3028Y2043D01*
X3028Y2041D01*
X3026Y2041D01*
X3026Y2039D01*
X3024Y2039D01*
X3024Y2037D01*
X3020Y2037D01*
X3020Y2035D01*
X3016Y2035D01*
X3016Y2033D01*
X3012Y2033D01*
X3012Y2031D01*
X3006Y2031D01*
X3006Y2029D01*
X2994Y2029D01*
X2994Y2027D01*
X3088Y2027D01*
X3088Y2029D01*
X3076Y2029D01*
X3076Y2031D01*
X3070Y2031D01*
X3070Y2033D01*
X3066Y2033D01*
X3066Y2035D01*
X3062Y2035D01*
X3062Y2037D01*
X3058Y2037D01*
X3058Y2039D01*
X3056Y2039D01*
X3056Y2041D01*
X3054Y2041D01*
X3054Y2043D01*
X3050Y2043D01*
X3050Y2045D01*
X3030Y2045D01*
G37*
D02*
G36*
X3130Y2045D02*
X3130Y2043D01*
X3128Y2043D01*
X3128Y2041D01*
X3126Y2041D01*
X3126Y2039D01*
X3124Y2039D01*
X3124Y2037D01*
X3120Y2037D01*
X3120Y2035D01*
X3116Y2035D01*
X3116Y2033D01*
X3112Y2033D01*
X3112Y2031D01*
X3106Y2031D01*
X3106Y2029D01*
X3094Y2029D01*
X3094Y2027D01*
X3188Y2027D01*
X3188Y2029D01*
X3176Y2029D01*
X3176Y2031D01*
X3170Y2031D01*
X3170Y2033D01*
X3164Y2033D01*
X3164Y2035D01*
X3162Y2035D01*
X3162Y2037D01*
X3158Y2037D01*
X3158Y2039D01*
X3156Y2039D01*
X3156Y2041D01*
X3154Y2041D01*
X3154Y2043D01*
X3150Y2043D01*
X3150Y2045D01*
X3130Y2045D01*
G37*
D02*
G36*
X3230Y2045D02*
X3230Y2043D01*
X3228Y2043D01*
X3228Y2041D01*
X3226Y2041D01*
X3226Y2039D01*
X3224Y2039D01*
X3224Y2037D01*
X3220Y2037D01*
X3220Y2035D01*
X3216Y2035D01*
X3216Y2033D01*
X3212Y2033D01*
X3212Y2031D01*
X3206Y2031D01*
X3206Y2029D01*
X3194Y2029D01*
X3194Y2027D01*
X3286Y2027D01*
X3286Y2029D01*
X3276Y2029D01*
X3276Y2031D01*
X3270Y2031D01*
X3270Y2033D01*
X3264Y2033D01*
X3264Y2035D01*
X3262Y2035D01*
X3262Y2037D01*
X3258Y2037D01*
X3258Y2039D01*
X3256Y2039D01*
X3256Y2041D01*
X3254Y2041D01*
X3254Y2043D01*
X3250Y2043D01*
X3250Y2045D01*
X3230Y2045D01*
G37*
D02*
G36*
X3330Y2045D02*
X3330Y2043D01*
X3328Y2043D01*
X3328Y2041D01*
X3326Y2041D01*
X3326Y2039D01*
X3324Y2039D01*
X3324Y2037D01*
X3320Y2037D01*
X3320Y2035D01*
X3316Y2035D01*
X3316Y2033D01*
X3312Y2033D01*
X3312Y2031D01*
X3306Y2031D01*
X3306Y2029D01*
X3294Y2029D01*
X3294Y2027D01*
X3388Y2027D01*
X3388Y2029D01*
X3376Y2029D01*
X3376Y2031D01*
X3370Y2031D01*
X3370Y2033D01*
X3364Y2033D01*
X3364Y2035D01*
X3362Y2035D01*
X3362Y2037D01*
X3358Y2037D01*
X3358Y2039D01*
X3356Y2039D01*
X3356Y2041D01*
X3354Y2041D01*
X3354Y2043D01*
X3350Y2043D01*
X3350Y2045D01*
X3330Y2045D01*
G37*
D02*
G36*
X3430Y2045D02*
X3430Y2043D01*
X3428Y2043D01*
X3428Y2041D01*
X3426Y2041D01*
X3426Y2039D01*
X3424Y2039D01*
X3424Y2037D01*
X3420Y2037D01*
X3420Y2035D01*
X3416Y2035D01*
X3416Y2033D01*
X3412Y2033D01*
X3412Y2031D01*
X3406Y2031D01*
X3406Y2029D01*
X3394Y2029D01*
X3394Y2027D01*
X3488Y2027D01*
X3488Y2029D01*
X3476Y2029D01*
X3476Y2031D01*
X3470Y2031D01*
X3470Y2033D01*
X3464Y2033D01*
X3464Y2035D01*
X3462Y2035D01*
X3462Y2037D01*
X3458Y2037D01*
X3458Y2039D01*
X3456Y2039D01*
X3456Y2041D01*
X3454Y2041D01*
X3454Y2043D01*
X3450Y2043D01*
X3450Y2045D01*
X3430Y2045D01*
G37*
D02*
G36*
X3530Y2045D02*
X3530Y2043D01*
X3528Y2043D01*
X3528Y2041D01*
X3526Y2041D01*
X3526Y2039D01*
X3524Y2039D01*
X3524Y2037D01*
X3520Y2037D01*
X3520Y2035D01*
X3516Y2035D01*
X3516Y2033D01*
X3512Y2033D01*
X3512Y2031D01*
X3506Y2031D01*
X3506Y2029D01*
X3494Y2029D01*
X3494Y2027D01*
X3588Y2027D01*
X3588Y2029D01*
X3576Y2029D01*
X3576Y2031D01*
X3570Y2031D01*
X3570Y2033D01*
X3566Y2033D01*
X3566Y2035D01*
X3562Y2035D01*
X3562Y2037D01*
X3558Y2037D01*
X3558Y2039D01*
X3556Y2039D01*
X3556Y2041D01*
X3554Y2041D01*
X3554Y2043D01*
X3550Y2043D01*
X3550Y2045D01*
X3530Y2045D01*
G37*
D02*
G36*
X2032Y2043D02*
X2032Y2027D01*
X2086Y2027D01*
X2086Y2029D01*
X2076Y2029D01*
X2076Y2031D01*
X2070Y2031D01*
X2070Y2033D01*
X2064Y2033D01*
X2064Y2035D01*
X2062Y2035D01*
X2062Y2037D01*
X2058Y2037D01*
X2058Y2039D01*
X2056Y2039D01*
X2056Y2041D01*
X2054Y2041D01*
X2054Y2043D01*
X2032Y2043D01*
G37*
D02*
G36*
X2032Y2027D02*
X2032Y2025D01*
X3658Y2025D01*
X3658Y2027D01*
X2032Y2027D01*
G37*
D02*
G36*
X2032Y2027D02*
X2032Y2025D01*
X3658Y2025D01*
X3658Y2027D01*
X2032Y2027D01*
G37*
D02*
G36*
X2032Y2027D02*
X2032Y2025D01*
X3658Y2025D01*
X3658Y2027D01*
X2032Y2027D01*
G37*
D02*
G36*
X2032Y2027D02*
X2032Y2025D01*
X3658Y2025D01*
X3658Y2027D01*
X2032Y2027D01*
G37*
D02*
G36*
X2032Y2027D02*
X2032Y2025D01*
X3658Y2025D01*
X3658Y2027D01*
X2032Y2027D01*
G37*
D02*
G36*
X2032Y2027D02*
X2032Y2025D01*
X3658Y2025D01*
X3658Y2027D01*
X2032Y2027D01*
G37*
D02*
G36*
X2032Y2027D02*
X2032Y2025D01*
X3658Y2025D01*
X3658Y2027D01*
X2032Y2027D01*
G37*
D02*
G36*
X2032Y2027D02*
X2032Y2025D01*
X3658Y2025D01*
X3658Y2027D01*
X2032Y2027D01*
G37*
D02*
G36*
X2032Y2027D02*
X2032Y2025D01*
X3658Y2025D01*
X3658Y2027D01*
X2032Y2027D01*
G37*
D02*
G36*
X2032Y2027D02*
X2032Y2025D01*
X3658Y2025D01*
X3658Y2027D01*
X2032Y2027D01*
G37*
D02*
G36*
X2032Y2027D02*
X2032Y2025D01*
X3658Y2025D01*
X3658Y2027D01*
X2032Y2027D01*
G37*
D02*
G36*
X2032Y2027D02*
X2032Y2025D01*
X3658Y2025D01*
X3658Y2027D01*
X2032Y2027D01*
G37*
D02*
G36*
X2032Y2027D02*
X2032Y2025D01*
X3658Y2025D01*
X3658Y2027D01*
X2032Y2027D01*
G37*
D02*
G36*
X2032Y2027D02*
X2032Y2025D01*
X3658Y2025D01*
X3658Y2027D01*
X2032Y2027D01*
G37*
D02*
G36*
X2032Y2027D02*
X2032Y2025D01*
X3658Y2025D01*
X3658Y2027D01*
X2032Y2027D01*
G37*
D02*
G36*
X2032Y2027D02*
X2032Y2025D01*
X3658Y2025D01*
X3658Y2027D01*
X2032Y2027D01*
G37*
D02*
G36*
X2032Y2027D02*
X2032Y2025D01*
X3658Y2025D01*
X3658Y2027D01*
X2032Y2027D01*
G37*
D02*
G36*
X2032Y2025D02*
X2032Y2023D01*
X2034Y2023D01*
X2034Y2021D01*
X2036Y2021D01*
X2036Y2019D01*
X2038Y2019D01*
X2038Y2017D01*
X2040Y2017D01*
X2040Y2013D01*
X2042Y2013D01*
X2042Y2009D01*
X2044Y2009D01*
X2044Y2003D01*
X2046Y2003D01*
X2046Y1997D01*
X2048Y1997D01*
X2048Y1973D01*
X2046Y1973D01*
X2046Y1967D01*
X2044Y1967D01*
X2044Y1961D01*
X2042Y1961D01*
X2042Y1957D01*
X2040Y1957D01*
X2040Y1955D01*
X2038Y1955D01*
X2038Y1951D01*
X2036Y1951D01*
X2036Y1949D01*
X2034Y1949D01*
X2034Y1947D01*
X2032Y1947D01*
X2032Y1945D01*
X2030Y1945D01*
X2030Y1943D01*
X2028Y1943D01*
X2028Y1941D01*
X2026Y1941D01*
X2026Y1939D01*
X2024Y1939D01*
X2024Y1937D01*
X2020Y1937D01*
X2020Y1935D01*
X2016Y1935D01*
X2016Y1915D01*
X3628Y1915D01*
X3628Y1917D01*
X3630Y1917D01*
X3630Y1919D01*
X3632Y1919D01*
X3632Y1921D01*
X3634Y1921D01*
X3634Y1923D01*
X3636Y1923D01*
X3636Y1925D01*
X3638Y1925D01*
X3638Y1929D01*
X3640Y1929D01*
X3640Y1931D01*
X3642Y1931D01*
X3642Y1933D01*
X3644Y1933D01*
X3644Y1935D01*
X3646Y1935D01*
X3646Y1937D01*
X3648Y1937D01*
X3648Y1939D01*
X3650Y1939D01*
X3650Y1941D01*
X3652Y1941D01*
X3652Y1943D01*
X3654Y1943D01*
X3654Y1945D01*
X3656Y1945D01*
X3656Y1947D01*
X3658Y1947D01*
X3658Y2025D01*
X2032Y2025D01*
G37*
D02*
G36*
X40Y2283D02*
X40Y2247D01*
X1052Y2247D01*
X1052Y2245D01*
X1298Y2245D01*
X1298Y2243D01*
X1896Y2243D01*
X1896Y2241D01*
X1906Y2241D01*
X1906Y2239D01*
X1912Y2239D01*
X1912Y2237D01*
X1916Y2237D01*
X1916Y2235D01*
X1920Y2235D01*
X1920Y2233D01*
X1924Y2233D01*
X1924Y2231D01*
X1926Y2231D01*
X1926Y2229D01*
X1928Y2229D01*
X1928Y2227D01*
X1930Y2227D01*
X1930Y2225D01*
X1950Y2225D01*
X1950Y2227D01*
X1954Y2227D01*
X1954Y2229D01*
X1956Y2229D01*
X1956Y2231D01*
X1958Y2231D01*
X1958Y2241D01*
X1960Y2241D01*
X1960Y2247D01*
X1962Y2247D01*
X1962Y2251D01*
X1964Y2251D01*
X1964Y2253D01*
X1966Y2253D01*
X1966Y2257D01*
X1968Y2257D01*
X1968Y2259D01*
X1970Y2259D01*
X1970Y2261D01*
X1972Y2261D01*
X1972Y2263D01*
X1974Y2263D01*
X1974Y2283D01*
X40Y2283D01*
G37*
D02*
G36*
X40Y2247D02*
X40Y2143D01*
X298Y2143D01*
X298Y2141D01*
X308Y2141D01*
X308Y2139D01*
X314Y2139D01*
X314Y2137D01*
X318Y2137D01*
X318Y2135D01*
X320Y2135D01*
X320Y2133D01*
X324Y2133D01*
X324Y2131D01*
X326Y2131D01*
X326Y2129D01*
X328Y2129D01*
X328Y2127D01*
X332Y2127D01*
X332Y2125D01*
X678Y2125D01*
X678Y2127D01*
X672Y2127D01*
X672Y2129D01*
X666Y2129D01*
X666Y2131D01*
X662Y2131D01*
X662Y2133D01*
X660Y2133D01*
X660Y2135D01*
X656Y2135D01*
X656Y2137D01*
X654Y2137D01*
X654Y2139D01*
X652Y2139D01*
X652Y2141D01*
X650Y2141D01*
X650Y2143D01*
X648Y2143D01*
X648Y2145D01*
X646Y2145D01*
X646Y2147D01*
X644Y2147D01*
X644Y2151D01*
X642Y2151D01*
X642Y2153D01*
X640Y2153D01*
X640Y2157D01*
X638Y2157D01*
X638Y2161D01*
X636Y2161D01*
X636Y2165D01*
X634Y2165D01*
X634Y2173D01*
X632Y2173D01*
X632Y2197D01*
X634Y2197D01*
X634Y2205D01*
X636Y2205D01*
X636Y2209D01*
X638Y2209D01*
X638Y2213D01*
X640Y2213D01*
X640Y2217D01*
X642Y2217D01*
X642Y2221D01*
X644Y2221D01*
X644Y2223D01*
X646Y2223D01*
X646Y2225D01*
X648Y2225D01*
X648Y2227D01*
X650Y2227D01*
X650Y2229D01*
X652Y2229D01*
X652Y2231D01*
X654Y2231D01*
X654Y2233D01*
X656Y2233D01*
X656Y2235D01*
X660Y2235D01*
X660Y2237D01*
X662Y2237D01*
X662Y2239D01*
X666Y2239D01*
X666Y2241D01*
X672Y2241D01*
X672Y2243D01*
X678Y2243D01*
X678Y2245D01*
X692Y2245D01*
X692Y2247D01*
X40Y2247D01*
G37*
D02*
G36*
X694Y2247D02*
X694Y2245D01*
X708Y2245D01*
X708Y2243D01*
X714Y2243D01*
X714Y2241D01*
X720Y2241D01*
X720Y2239D01*
X722Y2239D01*
X722Y2237D01*
X726Y2237D01*
X726Y2235D01*
X728Y2235D01*
X728Y2233D01*
X732Y2233D01*
X732Y2231D01*
X734Y2231D01*
X734Y2229D01*
X736Y2229D01*
X736Y2227D01*
X738Y2227D01*
X738Y2225D01*
X740Y2225D01*
X740Y2223D01*
X742Y2223D01*
X742Y2219D01*
X744Y2219D01*
X744Y2217D01*
X746Y2217D01*
X746Y2213D01*
X748Y2213D01*
X748Y2209D01*
X750Y2209D01*
X750Y2203D01*
X752Y2203D01*
X752Y2193D01*
X754Y2193D01*
X754Y2177D01*
X752Y2177D01*
X752Y2167D01*
X750Y2167D01*
X750Y2161D01*
X748Y2161D01*
X748Y2157D01*
X746Y2157D01*
X746Y2153D01*
X744Y2153D01*
X744Y2151D01*
X742Y2151D01*
X742Y2149D01*
X740Y2149D01*
X740Y2145D01*
X738Y2145D01*
X738Y2143D01*
X736Y2143D01*
X736Y2141D01*
X734Y2141D01*
X734Y2139D01*
X732Y2139D01*
X732Y2137D01*
X728Y2137D01*
X728Y2135D01*
X726Y2135D01*
X726Y2133D01*
X722Y2133D01*
X722Y2131D01*
X718Y2131D01*
X718Y2129D01*
X714Y2129D01*
X714Y2127D01*
X708Y2127D01*
X708Y2125D01*
X930Y2125D01*
X930Y2245D01*
X932Y2245D01*
X932Y2247D01*
X694Y2247D01*
G37*
D02*
G36*
X1052Y2245D02*
X1052Y2127D01*
X1126Y2127D01*
X1126Y2129D01*
X1120Y2129D01*
X1120Y2131D01*
X1116Y2131D01*
X1116Y2133D01*
X1112Y2133D01*
X1112Y2135D01*
X1108Y2135D01*
X1108Y2137D01*
X1106Y2137D01*
X1106Y2139D01*
X1104Y2139D01*
X1104Y2141D01*
X1100Y2141D01*
X1100Y2143D01*
X1098Y2143D01*
X1098Y2145D01*
X1096Y2145D01*
X1096Y2149D01*
X1094Y2149D01*
X1094Y2151D01*
X1092Y2151D01*
X1092Y2153D01*
X1090Y2153D01*
X1090Y2157D01*
X1088Y2157D01*
X1088Y2161D01*
X1086Y2161D01*
X1086Y2167D01*
X1084Y2167D01*
X1084Y2173D01*
X1082Y2173D01*
X1082Y2197D01*
X1084Y2197D01*
X1084Y2205D01*
X1086Y2205D01*
X1086Y2209D01*
X1088Y2209D01*
X1088Y2213D01*
X1090Y2213D01*
X1090Y2217D01*
X1092Y2217D01*
X1092Y2219D01*
X1094Y2219D01*
X1094Y2221D01*
X1096Y2221D01*
X1096Y2225D01*
X1098Y2225D01*
X1098Y2227D01*
X1100Y2227D01*
X1100Y2229D01*
X1102Y2229D01*
X1102Y2231D01*
X1106Y2231D01*
X1106Y2233D01*
X1108Y2233D01*
X1108Y2235D01*
X1112Y2235D01*
X1112Y2237D01*
X1114Y2237D01*
X1114Y2239D01*
X1120Y2239D01*
X1120Y2241D01*
X1126Y2241D01*
X1126Y2243D01*
X1140Y2243D01*
X1140Y2245D01*
X1052Y2245D01*
G37*
D02*
G36*
X1142Y2245D02*
X1142Y2243D01*
X1156Y2243D01*
X1156Y2241D01*
X1162Y2241D01*
X1162Y2239D01*
X1182Y2239D01*
X1182Y2245D01*
X1142Y2245D01*
G37*
D02*
G36*
X1300Y2243D02*
X1300Y2195D01*
X1518Y2195D01*
X1518Y2193D01*
X1526Y2193D01*
X1526Y2191D01*
X1532Y2191D01*
X1532Y2189D01*
X1536Y2189D01*
X1536Y2187D01*
X1540Y2187D01*
X1540Y2185D01*
X1542Y2185D01*
X1542Y2183D01*
X1546Y2183D01*
X1546Y2181D01*
X1548Y2181D01*
X1548Y2179D01*
X1552Y2179D01*
X1552Y2177D01*
X1554Y2177D01*
X1554Y2175D01*
X1556Y2175D01*
X1556Y2173D01*
X1558Y2173D01*
X1558Y2171D01*
X1560Y2171D01*
X1560Y2169D01*
X1562Y2169D01*
X1562Y2167D01*
X1564Y2167D01*
X1564Y2163D01*
X1566Y2163D01*
X1566Y2161D01*
X1568Y2161D01*
X1568Y2159D01*
X1570Y2159D01*
X1570Y2155D01*
X1572Y2155D01*
X1572Y2151D01*
X1574Y2151D01*
X1574Y2147D01*
X1576Y2147D01*
X1576Y2141D01*
X1578Y2141D01*
X1578Y2133D01*
X1580Y2133D01*
X1580Y2099D01*
X1578Y2099D01*
X1578Y2093D01*
X1576Y2093D01*
X1576Y2087D01*
X1574Y2087D01*
X1574Y2083D01*
X1572Y2083D01*
X1572Y2079D01*
X1570Y2079D01*
X1570Y2075D01*
X1568Y2075D01*
X1568Y2071D01*
X1566Y2071D01*
X1566Y2069D01*
X1564Y2069D01*
X1564Y2067D01*
X1562Y2067D01*
X1562Y2065D01*
X1560Y2065D01*
X1560Y2063D01*
X1558Y2063D01*
X1558Y2059D01*
X1554Y2059D01*
X1554Y2057D01*
X1552Y2057D01*
X1552Y2055D01*
X1550Y2055D01*
X1550Y2053D01*
X1548Y2053D01*
X1548Y2051D01*
X1544Y2051D01*
X1544Y2049D01*
X1540Y2049D01*
X1540Y2047D01*
X1538Y2047D01*
X1538Y2045D01*
X1534Y2045D01*
X1534Y2043D01*
X1598Y2043D01*
X1598Y2041D01*
X1608Y2041D01*
X1608Y2039D01*
X1614Y2039D01*
X1614Y2037D01*
X1618Y2037D01*
X1618Y2035D01*
X1620Y2035D01*
X1620Y2033D01*
X1624Y2033D01*
X1624Y2031D01*
X1626Y2031D01*
X1626Y2029D01*
X1628Y2029D01*
X1628Y2027D01*
X1688Y2027D01*
X1688Y2029D01*
X1676Y2029D01*
X1676Y2031D01*
X1670Y2031D01*
X1670Y2033D01*
X1664Y2033D01*
X1664Y2035D01*
X1662Y2035D01*
X1662Y2037D01*
X1658Y2037D01*
X1658Y2039D01*
X1656Y2039D01*
X1656Y2041D01*
X1654Y2041D01*
X1654Y2043D01*
X1650Y2043D01*
X1650Y2047D01*
X1648Y2047D01*
X1648Y2049D01*
X1646Y2049D01*
X1646Y2051D01*
X1644Y2051D01*
X1644Y2053D01*
X1642Y2053D01*
X1642Y2057D01*
X1640Y2057D01*
X1640Y2061D01*
X1638Y2061D01*
X1638Y2065D01*
X1636Y2065D01*
X1636Y2073D01*
X1634Y2073D01*
X1634Y2097D01*
X1636Y2097D01*
X1636Y2105D01*
X1638Y2105D01*
X1638Y2109D01*
X1640Y2109D01*
X1640Y2113D01*
X1642Y2113D01*
X1642Y2117D01*
X1644Y2117D01*
X1644Y2119D01*
X1646Y2119D01*
X1646Y2121D01*
X1648Y2121D01*
X1648Y2125D01*
X1650Y2125D01*
X1650Y2147D01*
X1648Y2147D01*
X1648Y2149D01*
X1646Y2149D01*
X1646Y2151D01*
X1644Y2151D01*
X1644Y2153D01*
X1642Y2153D01*
X1642Y2157D01*
X1640Y2157D01*
X1640Y2161D01*
X1638Y2161D01*
X1638Y2165D01*
X1636Y2165D01*
X1636Y2173D01*
X1634Y2173D01*
X1634Y2197D01*
X1636Y2197D01*
X1636Y2205D01*
X1638Y2205D01*
X1638Y2209D01*
X1640Y2209D01*
X1640Y2213D01*
X1642Y2213D01*
X1642Y2217D01*
X1644Y2217D01*
X1644Y2219D01*
X1646Y2219D01*
X1646Y2221D01*
X1648Y2221D01*
X1648Y2225D01*
X1650Y2225D01*
X1650Y2227D01*
X1654Y2227D01*
X1654Y2229D01*
X1656Y2229D01*
X1656Y2231D01*
X1658Y2231D01*
X1658Y2233D01*
X1662Y2233D01*
X1662Y2235D01*
X1664Y2235D01*
X1664Y2237D01*
X1668Y2237D01*
X1668Y2239D01*
X1674Y2239D01*
X1674Y2241D01*
X1684Y2241D01*
X1684Y2243D01*
X1300Y2243D01*
G37*
D02*
G36*
X1696Y2243D02*
X1696Y2241D01*
X1706Y2241D01*
X1706Y2239D01*
X1712Y2239D01*
X1712Y2237D01*
X1716Y2237D01*
X1716Y2235D01*
X1720Y2235D01*
X1720Y2233D01*
X1724Y2233D01*
X1724Y2231D01*
X1726Y2231D01*
X1726Y2229D01*
X1728Y2229D01*
X1728Y2227D01*
X1730Y2227D01*
X1730Y2225D01*
X1750Y2225D01*
X1750Y2227D01*
X1754Y2227D01*
X1754Y2229D01*
X1756Y2229D01*
X1756Y2231D01*
X1758Y2231D01*
X1758Y2233D01*
X1762Y2233D01*
X1762Y2235D01*
X1764Y2235D01*
X1764Y2237D01*
X1768Y2237D01*
X1768Y2239D01*
X1774Y2239D01*
X1774Y2241D01*
X1784Y2241D01*
X1784Y2243D01*
X1696Y2243D01*
G37*
D02*
G36*
X1796Y2243D02*
X1796Y2241D01*
X1806Y2241D01*
X1806Y2239D01*
X1812Y2239D01*
X1812Y2237D01*
X1816Y2237D01*
X1816Y2235D01*
X1820Y2235D01*
X1820Y2233D01*
X1824Y2233D01*
X1824Y2231D01*
X1826Y2231D01*
X1826Y2229D01*
X1828Y2229D01*
X1828Y2227D01*
X1830Y2227D01*
X1830Y2225D01*
X1850Y2225D01*
X1850Y2227D01*
X1854Y2227D01*
X1854Y2229D01*
X1856Y2229D01*
X1856Y2231D01*
X1858Y2231D01*
X1858Y2233D01*
X1862Y2233D01*
X1862Y2235D01*
X1864Y2235D01*
X1864Y2237D01*
X1868Y2237D01*
X1868Y2239D01*
X1874Y2239D01*
X1874Y2241D01*
X1884Y2241D01*
X1884Y2243D01*
X1796Y2243D01*
G37*
D02*
G36*
X1300Y2195D02*
X1300Y2127D01*
X1424Y2127D01*
X1424Y2135D01*
X1426Y2135D01*
X1426Y2141D01*
X1428Y2141D01*
X1428Y2147D01*
X1430Y2147D01*
X1430Y2151D01*
X1432Y2151D01*
X1432Y2155D01*
X1434Y2155D01*
X1434Y2159D01*
X1436Y2159D01*
X1436Y2161D01*
X1438Y2161D01*
X1438Y2165D01*
X1440Y2165D01*
X1440Y2167D01*
X1442Y2167D01*
X1442Y2169D01*
X1444Y2169D01*
X1444Y2171D01*
X1446Y2171D01*
X1446Y2173D01*
X1448Y2173D01*
X1448Y2175D01*
X1450Y2175D01*
X1450Y2177D01*
X1452Y2177D01*
X1452Y2179D01*
X1454Y2179D01*
X1454Y2181D01*
X1458Y2181D01*
X1458Y2183D01*
X1460Y2183D01*
X1460Y2185D01*
X1464Y2185D01*
X1464Y2187D01*
X1468Y2187D01*
X1468Y2189D01*
X1472Y2189D01*
X1472Y2191D01*
X1478Y2191D01*
X1478Y2193D01*
X1486Y2193D01*
X1486Y2195D01*
X1300Y2195D01*
G37*
D02*
G36*
X40Y2143D02*
X40Y1827D01*
X284Y1827D01*
X284Y1829D01*
X274Y1829D01*
X274Y1831D01*
X268Y1831D01*
X268Y1833D01*
X264Y1833D01*
X264Y1835D01*
X262Y1835D01*
X262Y1837D01*
X258Y1837D01*
X258Y1839D01*
X256Y1839D01*
X256Y1841D01*
X254Y1841D01*
X254Y1843D01*
X250Y1843D01*
X250Y1845D01*
X248Y1845D01*
X248Y1849D01*
X246Y1849D01*
X246Y1851D01*
X244Y1851D01*
X244Y1853D01*
X242Y1853D01*
X242Y1857D01*
X240Y1857D01*
X240Y1861D01*
X238Y1861D01*
X238Y1865D01*
X236Y1865D01*
X236Y1871D01*
X234Y1871D01*
X234Y1899D01*
X236Y1899D01*
X236Y1905D01*
X238Y1905D01*
X238Y1909D01*
X240Y1909D01*
X240Y1913D01*
X242Y1913D01*
X242Y1917D01*
X244Y1917D01*
X244Y1919D01*
X246Y1919D01*
X246Y1921D01*
X248Y1921D01*
X248Y1925D01*
X250Y1925D01*
X250Y1945D01*
X248Y1945D01*
X248Y1949D01*
X246Y1949D01*
X246Y1951D01*
X244Y1951D01*
X244Y1953D01*
X242Y1953D01*
X242Y1957D01*
X240Y1957D01*
X240Y1961D01*
X238Y1961D01*
X238Y1965D01*
X236Y1965D01*
X236Y1971D01*
X234Y1971D01*
X234Y1999D01*
X236Y1999D01*
X236Y2005D01*
X238Y2005D01*
X238Y2009D01*
X240Y2009D01*
X240Y2013D01*
X242Y2013D01*
X242Y2017D01*
X244Y2017D01*
X244Y2019D01*
X246Y2019D01*
X246Y2021D01*
X248Y2021D01*
X248Y2025D01*
X250Y2025D01*
X250Y2045D01*
X248Y2045D01*
X248Y2049D01*
X246Y2049D01*
X246Y2051D01*
X244Y2051D01*
X244Y2053D01*
X242Y2053D01*
X242Y2057D01*
X240Y2057D01*
X240Y2061D01*
X238Y2061D01*
X238Y2065D01*
X236Y2065D01*
X236Y2071D01*
X234Y2071D01*
X234Y2099D01*
X236Y2099D01*
X236Y2105D01*
X238Y2105D01*
X238Y2109D01*
X240Y2109D01*
X240Y2113D01*
X242Y2113D01*
X242Y2117D01*
X244Y2117D01*
X244Y2119D01*
X246Y2119D01*
X246Y2121D01*
X248Y2121D01*
X248Y2125D01*
X250Y2125D01*
X250Y2127D01*
X252Y2127D01*
X252Y2129D01*
X256Y2129D01*
X256Y2131D01*
X258Y2131D01*
X258Y2133D01*
X260Y2133D01*
X260Y2135D01*
X264Y2135D01*
X264Y2137D01*
X268Y2137D01*
X268Y2139D01*
X274Y2139D01*
X274Y2141D01*
X284Y2141D01*
X284Y2143D01*
X40Y2143D01*
G37*
D02*
G36*
X1162Y2131D02*
X1162Y2129D01*
X1154Y2129D01*
X1154Y2127D01*
X1182Y2127D01*
X1182Y2131D01*
X1162Y2131D01*
G37*
D02*
G36*
X1052Y2127D02*
X1052Y2125D01*
X1424Y2125D01*
X1424Y2127D01*
X1052Y2127D01*
G37*
D02*
G36*
X1052Y2127D02*
X1052Y2125D01*
X1424Y2125D01*
X1424Y2127D01*
X1052Y2127D01*
G37*
D02*
G36*
X1052Y2127D02*
X1052Y2125D01*
X1424Y2125D01*
X1424Y2127D01*
X1052Y2127D01*
G37*
D02*
G36*
X332Y2125D02*
X332Y2123D01*
X1424Y2123D01*
X1424Y2125D01*
X332Y2125D01*
G37*
D02*
G36*
X332Y2125D02*
X332Y2123D01*
X1424Y2123D01*
X1424Y2125D01*
X332Y2125D01*
G37*
D02*
G36*
X332Y2125D02*
X332Y2123D01*
X1424Y2123D01*
X1424Y2125D01*
X332Y2125D01*
G37*
D02*
G36*
X334Y2123D02*
X334Y2121D01*
X336Y2121D01*
X336Y2119D01*
X338Y2119D01*
X338Y2117D01*
X340Y2117D01*
X340Y2113D01*
X342Y2113D01*
X342Y2109D01*
X344Y2109D01*
X344Y2103D01*
X346Y2103D01*
X346Y2097D01*
X348Y2097D01*
X348Y2073D01*
X346Y2073D01*
X346Y2067D01*
X344Y2067D01*
X344Y2061D01*
X342Y2061D01*
X342Y2057D01*
X340Y2057D01*
X340Y2055D01*
X338Y2055D01*
X338Y2051D01*
X336Y2051D01*
X336Y2049D01*
X334Y2049D01*
X334Y2047D01*
X332Y2047D01*
X332Y2037D01*
X1494Y2037D01*
X1494Y2039D01*
X1482Y2039D01*
X1482Y2041D01*
X1476Y2041D01*
X1476Y2043D01*
X1470Y2043D01*
X1470Y2045D01*
X1466Y2045D01*
X1466Y2047D01*
X1462Y2047D01*
X1462Y2049D01*
X1460Y2049D01*
X1460Y2051D01*
X1456Y2051D01*
X1456Y2053D01*
X1454Y2053D01*
X1454Y2055D01*
X1452Y2055D01*
X1452Y2057D01*
X1448Y2057D01*
X1448Y2059D01*
X1446Y2059D01*
X1446Y2061D01*
X1444Y2061D01*
X1444Y2063D01*
X1442Y2063D01*
X1442Y2067D01*
X1440Y2067D01*
X1440Y2069D01*
X1438Y2069D01*
X1438Y2071D01*
X1436Y2071D01*
X1436Y2075D01*
X1434Y2075D01*
X1434Y2077D01*
X1432Y2077D01*
X1432Y2081D01*
X1430Y2081D01*
X1430Y2085D01*
X1428Y2085D01*
X1428Y2091D01*
X1426Y2091D01*
X1426Y2099D01*
X1424Y2099D01*
X1424Y2113D01*
X1422Y2113D01*
X1422Y2121D01*
X1424Y2121D01*
X1424Y2123D01*
X334Y2123D01*
G37*
D02*
G36*
X1730Y2045D02*
X1730Y2043D01*
X1728Y2043D01*
X1728Y2041D01*
X1726Y2041D01*
X1726Y2039D01*
X1724Y2039D01*
X1724Y2037D01*
X1720Y2037D01*
X1720Y2035D01*
X1716Y2035D01*
X1716Y2033D01*
X1712Y2033D01*
X1712Y2031D01*
X1706Y2031D01*
X1706Y2029D01*
X1694Y2029D01*
X1694Y2027D01*
X1788Y2027D01*
X1788Y2029D01*
X1776Y2029D01*
X1776Y2031D01*
X1770Y2031D01*
X1770Y2033D01*
X1764Y2033D01*
X1764Y2035D01*
X1762Y2035D01*
X1762Y2037D01*
X1758Y2037D01*
X1758Y2039D01*
X1756Y2039D01*
X1756Y2041D01*
X1754Y2041D01*
X1754Y2043D01*
X1750Y2043D01*
X1750Y2045D01*
X1730Y2045D01*
G37*
D02*
G36*
X1830Y2045D02*
X1830Y2043D01*
X1828Y2043D01*
X1828Y2041D01*
X1826Y2041D01*
X1826Y2039D01*
X1824Y2039D01*
X1824Y2037D01*
X1820Y2037D01*
X1820Y2035D01*
X1816Y2035D01*
X1816Y2033D01*
X1812Y2033D01*
X1812Y2031D01*
X1806Y2031D01*
X1806Y2029D01*
X1794Y2029D01*
X1794Y2027D01*
X1888Y2027D01*
X1888Y2029D01*
X1876Y2029D01*
X1876Y2031D01*
X1870Y2031D01*
X1870Y2033D01*
X1864Y2033D01*
X1864Y2035D01*
X1862Y2035D01*
X1862Y2037D01*
X1858Y2037D01*
X1858Y2039D01*
X1856Y2039D01*
X1856Y2041D01*
X1854Y2041D01*
X1854Y2043D01*
X1850Y2043D01*
X1850Y2045D01*
X1830Y2045D01*
G37*
D02*
G36*
X1930Y2045D02*
X1930Y2043D01*
X1928Y2043D01*
X1928Y2041D01*
X1926Y2041D01*
X1926Y2039D01*
X1924Y2039D01*
X1924Y2037D01*
X1920Y2037D01*
X1920Y2035D01*
X1916Y2035D01*
X1916Y2033D01*
X1912Y2033D01*
X1912Y2031D01*
X1906Y2031D01*
X1906Y2029D01*
X1894Y2029D01*
X1894Y2027D01*
X1950Y2027D01*
X1950Y2045D01*
X1930Y2045D01*
G37*
D02*
G36*
X1528Y2043D02*
X1528Y2041D01*
X1520Y2041D01*
X1520Y2039D01*
X1510Y2039D01*
X1510Y2037D01*
X1568Y2037D01*
X1568Y2039D01*
X1574Y2039D01*
X1574Y2041D01*
X1584Y2041D01*
X1584Y2043D01*
X1528Y2043D01*
G37*
D02*
G36*
X332Y2037D02*
X332Y2035D01*
X1564Y2035D01*
X1564Y2037D01*
X332Y2037D01*
G37*
D02*
G36*
X332Y2037D02*
X332Y2035D01*
X1564Y2035D01*
X1564Y2037D01*
X332Y2037D01*
G37*
D02*
G36*
X332Y2035D02*
X332Y2023D01*
X334Y2023D01*
X334Y2021D01*
X336Y2021D01*
X336Y2019D01*
X338Y2019D01*
X338Y2017D01*
X340Y2017D01*
X340Y2015D01*
X1300Y2015D01*
X1300Y1899D01*
X1298Y1899D01*
X1298Y1897D01*
X1358Y1897D01*
X1358Y1899D01*
X1360Y1899D01*
X1360Y1901D01*
X1362Y1901D01*
X1362Y1903D01*
X1364Y1903D01*
X1364Y1905D01*
X1366Y1905D01*
X1366Y1907D01*
X1370Y1907D01*
X1370Y1909D01*
X1372Y1909D01*
X1372Y1911D01*
X1376Y1911D01*
X1376Y1913D01*
X1380Y1913D01*
X1380Y1915D01*
X1564Y1915D01*
X1564Y1935D01*
X1562Y1935D01*
X1562Y1937D01*
X1558Y1937D01*
X1558Y1939D01*
X1556Y1939D01*
X1556Y1941D01*
X1554Y1941D01*
X1554Y1943D01*
X1550Y1943D01*
X1550Y1945D01*
X1548Y1945D01*
X1548Y1949D01*
X1546Y1949D01*
X1546Y1951D01*
X1544Y1951D01*
X1544Y1953D01*
X1542Y1953D01*
X1542Y1957D01*
X1540Y1957D01*
X1540Y1961D01*
X1538Y1961D01*
X1538Y1965D01*
X1536Y1965D01*
X1536Y1971D01*
X1534Y1971D01*
X1534Y1999D01*
X1536Y1999D01*
X1536Y2005D01*
X1538Y2005D01*
X1538Y2009D01*
X1540Y2009D01*
X1540Y2013D01*
X1542Y2013D01*
X1542Y2017D01*
X1544Y2017D01*
X1544Y2019D01*
X1546Y2019D01*
X1546Y2021D01*
X1548Y2021D01*
X1548Y2025D01*
X1550Y2025D01*
X1550Y2027D01*
X1552Y2027D01*
X1552Y2029D01*
X1556Y2029D01*
X1556Y2031D01*
X1558Y2031D01*
X1558Y2033D01*
X1560Y2033D01*
X1560Y2035D01*
X332Y2035D01*
G37*
D02*
G36*
X1632Y2027D02*
X1632Y2025D01*
X1950Y2025D01*
X1950Y2027D01*
X1632Y2027D01*
G37*
D02*
G36*
X1632Y2027D02*
X1632Y2025D01*
X1950Y2025D01*
X1950Y2027D01*
X1632Y2027D01*
G37*
D02*
G36*
X1632Y2027D02*
X1632Y2025D01*
X1950Y2025D01*
X1950Y2027D01*
X1632Y2027D01*
G37*
D02*
G36*
X1632Y2027D02*
X1632Y2025D01*
X1950Y2025D01*
X1950Y2027D01*
X1632Y2027D01*
G37*
D02*
G36*
X1632Y2025D02*
X1632Y2023D01*
X1634Y2023D01*
X1634Y2021D01*
X1636Y2021D01*
X1636Y2019D01*
X1638Y2019D01*
X1638Y2017D01*
X1640Y2017D01*
X1640Y2013D01*
X1642Y2013D01*
X1642Y2009D01*
X1644Y2009D01*
X1644Y2003D01*
X1646Y2003D01*
X1646Y1997D01*
X1648Y1997D01*
X1648Y1973D01*
X1646Y1973D01*
X1646Y1967D01*
X1644Y1967D01*
X1644Y1961D01*
X1642Y1961D01*
X1642Y1957D01*
X1640Y1957D01*
X1640Y1955D01*
X1638Y1955D01*
X1638Y1951D01*
X1636Y1951D01*
X1636Y1949D01*
X1634Y1949D01*
X1634Y1947D01*
X1632Y1947D01*
X1632Y1945D01*
X1630Y1945D01*
X1630Y1943D01*
X1628Y1943D01*
X1628Y1941D01*
X1626Y1941D01*
X1626Y1939D01*
X1624Y1939D01*
X1624Y1937D01*
X1620Y1937D01*
X1620Y1935D01*
X1616Y1935D01*
X1616Y1915D01*
X1964Y1915D01*
X1964Y1935D01*
X1962Y1935D01*
X1962Y1937D01*
X1958Y1937D01*
X1958Y1939D01*
X1956Y1939D01*
X1956Y1941D01*
X1954Y1941D01*
X1954Y1943D01*
X1950Y1943D01*
X1950Y1945D01*
X1948Y1945D01*
X1948Y1949D01*
X1946Y1949D01*
X1946Y1951D01*
X1944Y1951D01*
X1944Y1953D01*
X1942Y1953D01*
X1942Y1957D01*
X1940Y1957D01*
X1940Y1961D01*
X1938Y1961D01*
X1938Y1965D01*
X1936Y1965D01*
X1936Y1971D01*
X1934Y1971D01*
X1934Y1999D01*
X1936Y1999D01*
X1936Y2005D01*
X1938Y2005D01*
X1938Y2009D01*
X1940Y2009D01*
X1940Y2013D01*
X1942Y2013D01*
X1942Y2017D01*
X1944Y2017D01*
X1944Y2019D01*
X1946Y2019D01*
X1946Y2021D01*
X1948Y2021D01*
X1948Y2025D01*
X1632Y2025D01*
G37*
D02*
G36*
X340Y2015D02*
X340Y2013D01*
X342Y2013D01*
X342Y2009D01*
X344Y2009D01*
X344Y2003D01*
X346Y2003D01*
X346Y1997D01*
X348Y1997D01*
X348Y1973D01*
X346Y1973D01*
X346Y1967D01*
X344Y1967D01*
X344Y1961D01*
X342Y1961D01*
X342Y1957D01*
X340Y1957D01*
X340Y1955D01*
X338Y1955D01*
X338Y1951D01*
X336Y1951D01*
X336Y1949D01*
X334Y1949D01*
X334Y1947D01*
X332Y1947D01*
X332Y1923D01*
X334Y1923D01*
X334Y1921D01*
X336Y1921D01*
X336Y1919D01*
X338Y1919D01*
X338Y1917D01*
X340Y1917D01*
X340Y1913D01*
X342Y1913D01*
X342Y1909D01*
X344Y1909D01*
X344Y1903D01*
X346Y1903D01*
X346Y1897D01*
X396Y1897D01*
X396Y1899D01*
X394Y1899D01*
X394Y2015D01*
X340Y2015D01*
G37*
D02*
G36*
X512Y2015D02*
X512Y1897D01*
X1182Y1897D01*
X1182Y2015D01*
X512Y2015D01*
G37*
D02*
G36*
X348Y1897D02*
X348Y1895D01*
X1356Y1895D01*
X1356Y1897D01*
X348Y1897D01*
G37*
D02*
G36*
X348Y1897D02*
X348Y1895D01*
X1356Y1895D01*
X1356Y1897D01*
X348Y1897D01*
G37*
D02*
G36*
X348Y1897D02*
X348Y1895D01*
X1356Y1895D01*
X1356Y1897D01*
X348Y1897D01*
G37*
D02*
G36*
X348Y1895D02*
X348Y1873D01*
X346Y1873D01*
X346Y1867D01*
X344Y1867D01*
X344Y1861D01*
X342Y1861D01*
X342Y1857D01*
X340Y1857D01*
X340Y1855D01*
X338Y1855D01*
X338Y1851D01*
X336Y1851D01*
X336Y1849D01*
X334Y1849D01*
X334Y1847D01*
X332Y1847D01*
X332Y1845D01*
X330Y1845D01*
X330Y1843D01*
X328Y1843D01*
X328Y1841D01*
X326Y1841D01*
X326Y1839D01*
X324Y1839D01*
X324Y1837D01*
X320Y1837D01*
X320Y1835D01*
X316Y1835D01*
X316Y1833D01*
X312Y1833D01*
X312Y1831D01*
X306Y1831D01*
X306Y1829D01*
X296Y1829D01*
X296Y1827D01*
X338Y1827D01*
X338Y1829D01*
X340Y1829D01*
X340Y1831D01*
X342Y1831D01*
X342Y1833D01*
X344Y1833D01*
X344Y1835D01*
X346Y1835D01*
X346Y1837D01*
X348Y1837D01*
X348Y1839D01*
X350Y1839D01*
X350Y1841D01*
X352Y1841D01*
X352Y1843D01*
X354Y1843D01*
X354Y1845D01*
X356Y1845D01*
X356Y1847D01*
X358Y1847D01*
X358Y1849D01*
X360Y1849D01*
X360Y1851D01*
X362Y1851D01*
X362Y1853D01*
X364Y1853D01*
X364Y1855D01*
X366Y1855D01*
X366Y1857D01*
X368Y1857D01*
X368Y1859D01*
X370Y1859D01*
X370Y1861D01*
X374Y1861D01*
X374Y1863D01*
X378Y1863D01*
X378Y1865D01*
X382Y1865D01*
X382Y1867D01*
X1328Y1867D01*
X1328Y1869D01*
X1330Y1869D01*
X1330Y1871D01*
X1332Y1871D01*
X1332Y1873D01*
X1334Y1873D01*
X1334Y1875D01*
X1336Y1875D01*
X1336Y1877D01*
X1338Y1877D01*
X1338Y1879D01*
X1340Y1879D01*
X1340Y1881D01*
X1342Y1881D01*
X1342Y1883D01*
X1344Y1883D01*
X1344Y1885D01*
X1346Y1885D01*
X1346Y1887D01*
X1348Y1887D01*
X1348Y1889D01*
X1350Y1889D01*
X1350Y1891D01*
X1352Y1891D01*
X1352Y1893D01*
X1354Y1893D01*
X1354Y1895D01*
X348Y1895D01*
G37*
D02*
G36*
X40Y1827D02*
X40Y1825D01*
X336Y1825D01*
X336Y1827D01*
X40Y1827D01*
G37*
D02*
G36*
X40Y1827D02*
X40Y1825D01*
X336Y1825D01*
X336Y1827D01*
X40Y1827D01*
G37*
D02*
G36*
X40Y1825D02*
X40Y1793D01*
X276Y1793D01*
X276Y1791D01*
X284Y1791D01*
X284Y1789D01*
X290Y1789D01*
X290Y1787D01*
X310Y1787D01*
X310Y1793D01*
X312Y1793D01*
X312Y1799D01*
X314Y1799D01*
X314Y1803D01*
X316Y1803D01*
X316Y1807D01*
X318Y1807D01*
X318Y1809D01*
X320Y1809D01*
X320Y1811D01*
X322Y1811D01*
X322Y1813D01*
X324Y1813D01*
X324Y1815D01*
X326Y1815D01*
X326Y1817D01*
X328Y1817D01*
X328Y1819D01*
X330Y1819D01*
X330Y1821D01*
X332Y1821D01*
X332Y1823D01*
X334Y1823D01*
X334Y1825D01*
X40Y1825D01*
G37*
D02*
G36*
X40Y1793D02*
X40Y1783D01*
X60Y1783D01*
X60Y1785D01*
X64Y1785D01*
X64Y1787D01*
X68Y1787D01*
X68Y1789D01*
X74Y1789D01*
X74Y1791D01*
X84Y1791D01*
X84Y1793D01*
X40Y1793D01*
G37*
D02*
G36*
X98Y1793D02*
X98Y1791D01*
X108Y1791D01*
X108Y1789D01*
X114Y1789D01*
X114Y1787D01*
X118Y1787D01*
X118Y1785D01*
X120Y1785D01*
X120Y1783D01*
X124Y1783D01*
X124Y1781D01*
X126Y1781D01*
X126Y1779D01*
X128Y1779D01*
X128Y1777D01*
X132Y1777D01*
X132Y1773D01*
X134Y1773D01*
X134Y1771D01*
X136Y1771D01*
X136Y1769D01*
X138Y1769D01*
X138Y1767D01*
X140Y1767D01*
X140Y1763D01*
X142Y1763D01*
X142Y1759D01*
X144Y1759D01*
X144Y1753D01*
X146Y1753D01*
X146Y1747D01*
X148Y1747D01*
X148Y1723D01*
X146Y1723D01*
X146Y1717D01*
X144Y1717D01*
X144Y1711D01*
X142Y1711D01*
X142Y1707D01*
X140Y1707D01*
X140Y1705D01*
X138Y1705D01*
X138Y1701D01*
X136Y1701D01*
X136Y1699D01*
X134Y1699D01*
X134Y1697D01*
X132Y1697D01*
X132Y1695D01*
X130Y1695D01*
X130Y1693D01*
X128Y1693D01*
X128Y1691D01*
X126Y1691D01*
X126Y1689D01*
X124Y1689D01*
X124Y1687D01*
X120Y1687D01*
X120Y1685D01*
X116Y1685D01*
X116Y1683D01*
X112Y1683D01*
X112Y1681D01*
X106Y1681D01*
X106Y1679D01*
X96Y1679D01*
X96Y1677D01*
X262Y1677D01*
X262Y1679D01*
X252Y1679D01*
X252Y1681D01*
X246Y1681D01*
X246Y1683D01*
X242Y1683D01*
X242Y1685D01*
X238Y1685D01*
X238Y1687D01*
X236Y1687D01*
X236Y1689D01*
X232Y1689D01*
X232Y1691D01*
X230Y1691D01*
X230Y1693D01*
X228Y1693D01*
X228Y1695D01*
X226Y1695D01*
X226Y1697D01*
X224Y1697D01*
X224Y1699D01*
X222Y1699D01*
X222Y1703D01*
X220Y1703D01*
X220Y1705D01*
X218Y1705D01*
X218Y1709D01*
X216Y1709D01*
X216Y1713D01*
X214Y1713D01*
X214Y1719D01*
X212Y1719D01*
X212Y1729D01*
X210Y1729D01*
X210Y1743D01*
X212Y1743D01*
X212Y1751D01*
X214Y1751D01*
X214Y1757D01*
X216Y1757D01*
X216Y1761D01*
X218Y1761D01*
X218Y1765D01*
X220Y1765D01*
X220Y1767D01*
X222Y1767D01*
X222Y1771D01*
X224Y1771D01*
X224Y1773D01*
X226Y1773D01*
X226Y1775D01*
X228Y1775D01*
X228Y1777D01*
X230Y1777D01*
X230Y1779D01*
X232Y1779D01*
X232Y1781D01*
X236Y1781D01*
X236Y1783D01*
X238Y1783D01*
X238Y1785D01*
X242Y1785D01*
X242Y1787D01*
X246Y1787D01*
X246Y1789D01*
X252Y1789D01*
X252Y1791D01*
X260Y1791D01*
X260Y1793D01*
X98Y1793D01*
G37*
D02*
G36*
X40Y1687D02*
X40Y1677D01*
X84Y1677D01*
X84Y1679D01*
X74Y1679D01*
X74Y1681D01*
X68Y1681D01*
X68Y1683D01*
X64Y1683D01*
X64Y1685D01*
X62Y1685D01*
X62Y1687D01*
X40Y1687D01*
G37*
D02*
G36*
X290Y1683D02*
X290Y1681D01*
X284Y1681D01*
X284Y1679D01*
X274Y1679D01*
X274Y1677D01*
X310Y1677D01*
X310Y1683D01*
X290Y1683D01*
G37*
D02*
G36*
X40Y1677D02*
X40Y1675D01*
X310Y1675D01*
X310Y1677D01*
X40Y1677D01*
G37*
D02*
G36*
X40Y1677D02*
X40Y1675D01*
X310Y1675D01*
X310Y1677D01*
X40Y1677D01*
G37*
D02*
G36*
X40Y1677D02*
X40Y1675D01*
X310Y1675D01*
X310Y1677D01*
X40Y1677D01*
G37*
D02*
G36*
X40Y1675D02*
X40Y1537D01*
X98Y1537D01*
X98Y1535D01*
X108Y1535D01*
X108Y1533D01*
X114Y1533D01*
X114Y1531D01*
X118Y1531D01*
X118Y1529D01*
X120Y1529D01*
X120Y1527D01*
X124Y1527D01*
X124Y1525D01*
X126Y1525D01*
X126Y1523D01*
X128Y1523D01*
X128Y1521D01*
X132Y1521D01*
X132Y1517D01*
X134Y1517D01*
X134Y1515D01*
X136Y1515D01*
X136Y1513D01*
X138Y1513D01*
X138Y1511D01*
X158Y1511D01*
X158Y1545D01*
X160Y1545D01*
X160Y1551D01*
X162Y1551D01*
X162Y1555D01*
X164Y1555D01*
X164Y1557D01*
X166Y1557D01*
X166Y1559D01*
X168Y1559D01*
X168Y1561D01*
X170Y1561D01*
X170Y1563D01*
X172Y1563D01*
X172Y1565D01*
X174Y1565D01*
X174Y1567D01*
X176Y1567D01*
X176Y1569D01*
X178Y1569D01*
X178Y1571D01*
X180Y1571D01*
X180Y1573D01*
X182Y1573D01*
X182Y1575D01*
X184Y1575D01*
X184Y1577D01*
X188Y1577D01*
X188Y1579D01*
X190Y1579D01*
X190Y1581D01*
X192Y1581D01*
X192Y1583D01*
X194Y1583D01*
X194Y1585D01*
X196Y1585D01*
X196Y1587D01*
X198Y1587D01*
X198Y1589D01*
X200Y1589D01*
X200Y1591D01*
X202Y1591D01*
X202Y1593D01*
X204Y1593D01*
X204Y1595D01*
X206Y1595D01*
X206Y1597D01*
X208Y1597D01*
X208Y1599D01*
X210Y1599D01*
X210Y1601D01*
X212Y1601D01*
X212Y1603D01*
X214Y1603D01*
X214Y1605D01*
X216Y1605D01*
X216Y1607D01*
X218Y1607D01*
X218Y1609D01*
X222Y1609D01*
X222Y1611D01*
X224Y1611D01*
X224Y1613D01*
X228Y1613D01*
X228Y1615D01*
X232Y1615D01*
X232Y1617D01*
X278Y1617D01*
X278Y1619D01*
X280Y1619D01*
X280Y1621D01*
X282Y1621D01*
X282Y1623D01*
X284Y1623D01*
X284Y1625D01*
X286Y1625D01*
X286Y1627D01*
X288Y1627D01*
X288Y1629D01*
X292Y1629D01*
X292Y1631D01*
X294Y1631D01*
X294Y1633D01*
X296Y1633D01*
X296Y1635D01*
X298Y1635D01*
X298Y1637D01*
X300Y1637D01*
X300Y1639D01*
X302Y1639D01*
X302Y1641D01*
X304Y1641D01*
X304Y1643D01*
X306Y1643D01*
X306Y1645D01*
X308Y1645D01*
X308Y1647D01*
X310Y1647D01*
X310Y1675D01*
X40Y1675D01*
G37*
D02*
G36*
X40Y1537D02*
X40Y1527D01*
X60Y1527D01*
X60Y1529D01*
X64Y1529D01*
X64Y1531D01*
X68Y1531D01*
X68Y1533D01*
X74Y1533D01*
X74Y1535D01*
X84Y1535D01*
X84Y1537D01*
X40Y1537D01*
G37*
D02*
G36*
X1370Y1819D02*
X1370Y1817D01*
X1368Y1817D01*
X1368Y1815D01*
X1366Y1815D01*
X1366Y1813D01*
X1364Y1813D01*
X1364Y1811D01*
X1360Y1811D01*
X1360Y1809D01*
X1358Y1809D01*
X1358Y1807D01*
X1354Y1807D01*
X1354Y1805D01*
X1348Y1805D01*
X1348Y1803D01*
X402Y1803D01*
X402Y1801D01*
X400Y1801D01*
X400Y1799D01*
X398Y1799D01*
X398Y1797D01*
X396Y1797D01*
X396Y1795D01*
X394Y1795D01*
X394Y1793D01*
X392Y1793D01*
X392Y1791D01*
X390Y1791D01*
X390Y1789D01*
X388Y1789D01*
X388Y1787D01*
X386Y1787D01*
X386Y1785D01*
X384Y1785D01*
X384Y1783D01*
X382Y1783D01*
X382Y1781D01*
X380Y1781D01*
X380Y1779D01*
X378Y1779D01*
X378Y1777D01*
X376Y1777D01*
X376Y1775D01*
X374Y1775D01*
X374Y1627D01*
X372Y1627D01*
X372Y1621D01*
X370Y1621D01*
X370Y1617D01*
X368Y1617D01*
X368Y1615D01*
X366Y1615D01*
X366Y1611D01*
X364Y1611D01*
X364Y1609D01*
X362Y1609D01*
X362Y1607D01*
X358Y1607D01*
X358Y1605D01*
X356Y1605D01*
X356Y1603D01*
X354Y1603D01*
X354Y1601D01*
X352Y1601D01*
X352Y1599D01*
X350Y1599D01*
X350Y1597D01*
X348Y1597D01*
X348Y1595D01*
X346Y1595D01*
X346Y1593D01*
X344Y1593D01*
X344Y1591D01*
X342Y1591D01*
X342Y1589D01*
X340Y1589D01*
X340Y1587D01*
X338Y1587D01*
X338Y1585D01*
X336Y1585D01*
X336Y1583D01*
X334Y1583D01*
X334Y1581D01*
X332Y1581D01*
X332Y1579D01*
X330Y1579D01*
X330Y1577D01*
X328Y1577D01*
X328Y1575D01*
X324Y1575D01*
X324Y1573D01*
X322Y1573D01*
X322Y1571D01*
X320Y1571D01*
X320Y1569D01*
X318Y1569D01*
X318Y1567D01*
X316Y1567D01*
X316Y1565D01*
X314Y1565D01*
X314Y1563D01*
X312Y1563D01*
X312Y1561D01*
X310Y1561D01*
X310Y1559D01*
X306Y1559D01*
X306Y1557D01*
X304Y1557D01*
X304Y1555D01*
X296Y1555D01*
X296Y1553D01*
X284Y1553D01*
X284Y1533D01*
X290Y1533D01*
X290Y1531D01*
X294Y1531D01*
X294Y1529D01*
X298Y1529D01*
X298Y1527D01*
X300Y1527D01*
X300Y1525D01*
X304Y1525D01*
X304Y1523D01*
X306Y1523D01*
X306Y1521D01*
X308Y1521D01*
X308Y1519D01*
X310Y1519D01*
X310Y1517D01*
X312Y1517D01*
X312Y1515D01*
X314Y1515D01*
X314Y1511D01*
X316Y1511D01*
X316Y1509D01*
X318Y1509D01*
X318Y1505D01*
X320Y1505D01*
X320Y1501D01*
X322Y1501D01*
X322Y1495D01*
X324Y1495D01*
X324Y1485D01*
X326Y1485D01*
X326Y1473D01*
X324Y1473D01*
X324Y1463D01*
X322Y1463D01*
X322Y1457D01*
X320Y1457D01*
X320Y1453D01*
X318Y1453D01*
X318Y1449D01*
X316Y1449D01*
X316Y1447D01*
X314Y1447D01*
X314Y1445D01*
X312Y1445D01*
X312Y1441D01*
X310Y1441D01*
X310Y1439D01*
X308Y1439D01*
X308Y1437D01*
X306Y1437D01*
X306Y1435D01*
X302Y1435D01*
X302Y1433D01*
X300Y1433D01*
X300Y1431D01*
X298Y1431D01*
X298Y1429D01*
X294Y1429D01*
X294Y1427D01*
X290Y1427D01*
X290Y1425D01*
X284Y1425D01*
X284Y1423D01*
X274Y1423D01*
X274Y1421D01*
X1390Y1421D01*
X1390Y1819D01*
X1370Y1819D01*
G37*
D02*
G36*
X138Y1449D02*
X138Y1445D01*
X136Y1445D01*
X136Y1443D01*
X134Y1443D01*
X134Y1441D01*
X132Y1441D01*
X132Y1439D01*
X130Y1439D01*
X130Y1437D01*
X128Y1437D01*
X128Y1435D01*
X126Y1435D01*
X126Y1433D01*
X124Y1433D01*
X124Y1431D01*
X120Y1431D01*
X120Y1429D01*
X116Y1429D01*
X116Y1427D01*
X112Y1427D01*
X112Y1425D01*
X106Y1425D01*
X106Y1423D01*
X96Y1423D01*
X96Y1421D01*
X158Y1421D01*
X158Y1449D01*
X138Y1449D01*
G37*
D02*
G36*
X40Y1431D02*
X40Y1421D01*
X86Y1421D01*
X86Y1423D01*
X76Y1423D01*
X76Y1425D01*
X68Y1425D01*
X68Y1427D01*
X64Y1427D01*
X64Y1429D01*
X62Y1429D01*
X62Y1431D01*
X40Y1431D01*
G37*
D02*
G36*
X222Y1429D02*
X222Y1421D01*
X262Y1421D01*
X262Y1423D01*
X252Y1423D01*
X252Y1425D01*
X246Y1425D01*
X246Y1427D01*
X242Y1427D01*
X242Y1429D01*
X222Y1429D01*
G37*
D02*
G36*
X40Y1421D02*
X40Y1419D01*
X158Y1419D01*
X158Y1421D01*
X40Y1421D01*
G37*
D02*
G36*
X40Y1421D02*
X40Y1419D01*
X158Y1419D01*
X158Y1421D01*
X40Y1421D01*
G37*
D02*
G36*
X222Y1421D02*
X222Y1419D01*
X1390Y1419D01*
X1390Y1421D01*
X222Y1421D01*
G37*
D02*
G36*
X222Y1421D02*
X222Y1419D01*
X1390Y1419D01*
X1390Y1421D01*
X222Y1421D01*
G37*
D02*
G36*
X40Y1419D02*
X40Y1035D01*
X182Y1035D01*
X182Y1037D01*
X174Y1037D01*
X174Y1039D01*
X170Y1039D01*
X170Y1041D01*
X166Y1041D01*
X166Y1043D01*
X162Y1043D01*
X162Y1045D01*
X160Y1045D01*
X160Y1047D01*
X158Y1047D01*
X158Y1049D01*
X154Y1049D01*
X154Y1051D01*
X152Y1051D01*
X152Y1055D01*
X150Y1055D01*
X150Y1057D01*
X148Y1057D01*
X148Y1061D01*
X146Y1061D01*
X146Y1063D01*
X144Y1063D01*
X144Y1067D01*
X142Y1067D01*
X142Y1075D01*
X140Y1075D01*
X140Y1099D01*
X142Y1099D01*
X142Y1105D01*
X144Y1105D01*
X144Y1109D01*
X146Y1109D01*
X146Y1113D01*
X148Y1113D01*
X148Y1133D01*
X140Y1133D01*
X140Y1237D01*
X158Y1237D01*
X158Y1419D01*
X40Y1419D01*
G37*
D02*
G36*
X222Y1419D02*
X222Y1237D01*
X242Y1237D01*
X242Y1133D01*
X234Y1133D01*
X234Y1113D01*
X236Y1113D01*
X236Y1109D01*
X238Y1109D01*
X238Y1105D01*
X240Y1105D01*
X240Y1097D01*
X242Y1097D01*
X242Y1077D01*
X240Y1077D01*
X240Y1069D01*
X238Y1069D01*
X238Y1065D01*
X236Y1065D01*
X236Y1061D01*
X234Y1061D01*
X234Y1057D01*
X232Y1057D01*
X232Y1055D01*
X230Y1055D01*
X230Y1053D01*
X228Y1053D01*
X228Y1051D01*
X226Y1051D01*
X226Y1049D01*
X224Y1049D01*
X224Y1047D01*
X222Y1047D01*
X222Y1045D01*
X220Y1045D01*
X220Y1043D01*
X216Y1043D01*
X216Y1041D01*
X212Y1041D01*
X212Y1039D01*
X208Y1039D01*
X208Y1037D01*
X200Y1037D01*
X200Y1035D01*
X1390Y1035D01*
X1390Y1419D01*
X222Y1419D01*
G37*
D02*
G36*
X40Y1035D02*
X40Y1033D01*
X1390Y1033D01*
X1390Y1035D01*
X40Y1035D01*
G37*
D02*
G36*
X40Y1035D02*
X40Y1033D01*
X1390Y1033D01*
X1390Y1035D01*
X40Y1035D01*
G37*
D02*
G36*
X40Y1033D02*
X40Y943D01*
X198Y943D01*
X198Y941D01*
X208Y941D01*
X208Y939D01*
X214Y939D01*
X214Y937D01*
X218Y937D01*
X218Y935D01*
X220Y935D01*
X220Y933D01*
X224Y933D01*
X224Y931D01*
X226Y931D01*
X226Y929D01*
X228Y929D01*
X228Y927D01*
X232Y927D01*
X232Y923D01*
X234Y923D01*
X234Y921D01*
X236Y921D01*
X236Y919D01*
X238Y919D01*
X238Y917D01*
X240Y917D01*
X240Y913D01*
X242Y913D01*
X242Y909D01*
X244Y909D01*
X244Y903D01*
X246Y903D01*
X246Y897D01*
X248Y897D01*
X248Y873D01*
X246Y873D01*
X246Y867D01*
X244Y867D01*
X244Y861D01*
X242Y861D01*
X242Y857D01*
X240Y857D01*
X240Y855D01*
X238Y855D01*
X238Y851D01*
X236Y851D01*
X236Y849D01*
X234Y849D01*
X234Y847D01*
X232Y847D01*
X232Y845D01*
X230Y845D01*
X230Y843D01*
X228Y843D01*
X228Y841D01*
X226Y841D01*
X226Y839D01*
X224Y839D01*
X224Y837D01*
X220Y837D01*
X220Y835D01*
X216Y835D01*
X216Y833D01*
X212Y833D01*
X212Y831D01*
X206Y831D01*
X206Y829D01*
X196Y829D01*
X196Y827D01*
X1390Y827D01*
X1390Y1033D01*
X40Y1033D01*
G37*
D02*
G36*
X40Y943D02*
X40Y827D01*
X184Y827D01*
X184Y829D01*
X174Y829D01*
X174Y831D01*
X168Y831D01*
X168Y833D01*
X164Y833D01*
X164Y835D01*
X162Y835D01*
X162Y837D01*
X158Y837D01*
X158Y839D01*
X156Y839D01*
X156Y841D01*
X154Y841D01*
X154Y843D01*
X150Y843D01*
X150Y845D01*
X148Y845D01*
X148Y849D01*
X146Y849D01*
X146Y851D01*
X144Y851D01*
X144Y853D01*
X142Y853D01*
X142Y857D01*
X140Y857D01*
X140Y861D01*
X138Y861D01*
X138Y865D01*
X136Y865D01*
X136Y871D01*
X134Y871D01*
X134Y899D01*
X136Y899D01*
X136Y905D01*
X138Y905D01*
X138Y909D01*
X140Y909D01*
X140Y913D01*
X142Y913D01*
X142Y917D01*
X144Y917D01*
X144Y919D01*
X146Y919D01*
X146Y921D01*
X148Y921D01*
X148Y925D01*
X150Y925D01*
X150Y927D01*
X152Y927D01*
X152Y929D01*
X156Y929D01*
X156Y931D01*
X158Y931D01*
X158Y933D01*
X160Y933D01*
X160Y935D01*
X164Y935D01*
X164Y937D01*
X168Y937D01*
X168Y939D01*
X174Y939D01*
X174Y941D01*
X184Y941D01*
X184Y943D01*
X40Y943D01*
G37*
D02*
G36*
X40Y827D02*
X40Y825D01*
X1390Y825D01*
X1390Y827D01*
X40Y827D01*
G37*
D02*
G36*
X40Y827D02*
X40Y825D01*
X1390Y825D01*
X1390Y827D01*
X40Y827D01*
G37*
D02*
G36*
X40Y825D02*
X40Y543D01*
X198Y543D01*
X198Y541D01*
X208Y541D01*
X208Y539D01*
X214Y539D01*
X214Y537D01*
X218Y537D01*
X218Y535D01*
X220Y535D01*
X220Y533D01*
X224Y533D01*
X224Y531D01*
X226Y531D01*
X226Y529D01*
X228Y529D01*
X228Y527D01*
X232Y527D01*
X232Y523D01*
X234Y523D01*
X234Y521D01*
X236Y521D01*
X236Y519D01*
X238Y519D01*
X238Y517D01*
X240Y517D01*
X240Y513D01*
X242Y513D01*
X242Y509D01*
X244Y509D01*
X244Y503D01*
X246Y503D01*
X246Y497D01*
X248Y497D01*
X248Y473D01*
X246Y473D01*
X246Y467D01*
X244Y467D01*
X244Y461D01*
X242Y461D01*
X242Y457D01*
X240Y457D01*
X240Y455D01*
X238Y455D01*
X238Y451D01*
X236Y451D01*
X236Y449D01*
X234Y449D01*
X234Y447D01*
X232Y447D01*
X232Y445D01*
X230Y445D01*
X230Y443D01*
X228Y443D01*
X228Y441D01*
X226Y441D01*
X226Y439D01*
X224Y439D01*
X224Y437D01*
X220Y437D01*
X220Y435D01*
X216Y435D01*
X216Y433D01*
X212Y433D01*
X212Y431D01*
X206Y431D01*
X206Y429D01*
X196Y429D01*
X196Y427D01*
X1390Y427D01*
X1390Y825D01*
X40Y825D01*
G37*
D02*
G36*
X40Y543D02*
X40Y427D01*
X184Y427D01*
X184Y429D01*
X174Y429D01*
X174Y431D01*
X168Y431D01*
X168Y433D01*
X164Y433D01*
X164Y435D01*
X162Y435D01*
X162Y437D01*
X158Y437D01*
X158Y439D01*
X156Y439D01*
X156Y441D01*
X154Y441D01*
X154Y443D01*
X150Y443D01*
X150Y445D01*
X148Y445D01*
X148Y449D01*
X146Y449D01*
X146Y451D01*
X144Y451D01*
X144Y453D01*
X142Y453D01*
X142Y457D01*
X140Y457D01*
X140Y461D01*
X138Y461D01*
X138Y465D01*
X136Y465D01*
X136Y471D01*
X134Y471D01*
X134Y499D01*
X136Y499D01*
X136Y505D01*
X138Y505D01*
X138Y509D01*
X140Y509D01*
X140Y513D01*
X142Y513D01*
X142Y517D01*
X144Y517D01*
X144Y519D01*
X146Y519D01*
X146Y521D01*
X148Y521D01*
X148Y525D01*
X150Y525D01*
X150Y527D01*
X152Y527D01*
X152Y529D01*
X156Y529D01*
X156Y531D01*
X158Y531D01*
X158Y533D01*
X160Y533D01*
X160Y535D01*
X164Y535D01*
X164Y537D01*
X168Y537D01*
X168Y539D01*
X174Y539D01*
X174Y541D01*
X184Y541D01*
X184Y543D01*
X40Y543D01*
G37*
D02*
G36*
X40Y427D02*
X40Y425D01*
X1390Y425D01*
X1390Y427D01*
X40Y427D01*
G37*
D02*
G36*
X40Y427D02*
X40Y425D01*
X1390Y425D01*
X1390Y427D01*
X40Y427D01*
G37*
D02*
G36*
X40Y425D02*
X40Y383D01*
X250Y383D01*
X250Y263D01*
X202Y263D01*
X202Y245D01*
X1302Y245D01*
X1302Y127D01*
X1300Y127D01*
X1300Y125D01*
X1390Y125D01*
X1390Y425D01*
X40Y425D01*
G37*
D02*
G36*
X40Y383D02*
X40Y125D01*
X182Y125D01*
X182Y127D01*
X172Y127D01*
X172Y129D01*
X168Y129D01*
X168Y131D01*
X162Y131D01*
X162Y133D01*
X160Y133D01*
X160Y135D01*
X156Y135D01*
X156Y137D01*
X154Y137D01*
X154Y139D01*
X152Y139D01*
X152Y141D01*
X150Y141D01*
X150Y143D01*
X148Y143D01*
X148Y145D01*
X146Y145D01*
X146Y147D01*
X144Y147D01*
X144Y149D01*
X142Y149D01*
X142Y151D01*
X140Y151D01*
X140Y155D01*
X138Y155D01*
X138Y159D01*
X136Y159D01*
X136Y163D01*
X134Y163D01*
X134Y169D01*
X132Y169D01*
X132Y181D01*
X130Y181D01*
X130Y189D01*
X132Y189D01*
X132Y201D01*
X134Y201D01*
X134Y207D01*
X136Y207D01*
X136Y211D01*
X138Y211D01*
X138Y215D01*
X140Y215D01*
X140Y219D01*
X142Y219D01*
X142Y221D01*
X144Y221D01*
X144Y223D01*
X146Y223D01*
X146Y225D01*
X148Y225D01*
X148Y229D01*
X152Y229D01*
X152Y231D01*
X154Y231D01*
X154Y233D01*
X156Y233D01*
X156Y235D01*
X160Y235D01*
X160Y237D01*
X162Y237D01*
X162Y239D01*
X166Y239D01*
X166Y241D01*
X172Y241D01*
X172Y243D01*
X180Y243D01*
X180Y263D01*
X130Y263D01*
X130Y383D01*
X40Y383D01*
G37*
D02*
G36*
X202Y245D02*
X202Y243D01*
X210Y243D01*
X210Y241D01*
X214Y241D01*
X214Y239D01*
X218Y239D01*
X218Y237D01*
X222Y237D01*
X222Y235D01*
X226Y235D01*
X226Y233D01*
X228Y233D01*
X228Y231D01*
X230Y231D01*
X230Y229D01*
X232Y229D01*
X232Y227D01*
X234Y227D01*
X234Y225D01*
X236Y225D01*
X236Y223D01*
X238Y223D01*
X238Y221D01*
X240Y221D01*
X240Y217D01*
X242Y217D01*
X242Y215D01*
X244Y215D01*
X244Y211D01*
X246Y211D01*
X246Y205D01*
X248Y205D01*
X248Y199D01*
X250Y199D01*
X250Y171D01*
X248Y171D01*
X248Y165D01*
X246Y165D01*
X246Y159D01*
X244Y159D01*
X244Y155D01*
X242Y155D01*
X242Y153D01*
X240Y153D01*
X240Y149D01*
X238Y149D01*
X238Y147D01*
X236Y147D01*
X236Y145D01*
X234Y145D01*
X234Y143D01*
X232Y143D01*
X232Y141D01*
X230Y141D01*
X230Y139D01*
X228Y139D01*
X228Y137D01*
X224Y137D01*
X224Y135D01*
X222Y135D01*
X222Y133D01*
X218Y133D01*
X218Y131D01*
X214Y131D01*
X214Y129D01*
X208Y129D01*
X208Y127D01*
X394Y127D01*
X394Y245D01*
X202Y245D01*
G37*
D02*
G36*
X512Y245D02*
X512Y127D01*
X1180Y127D01*
X1180Y245D01*
X512Y245D01*
G37*
D02*
G36*
X200Y127D02*
X200Y125D01*
X1182Y125D01*
X1182Y127D01*
X200Y127D01*
G37*
D02*
G36*
X200Y127D02*
X200Y125D01*
X1182Y125D01*
X1182Y127D01*
X200Y127D01*
G37*
D02*
G36*
X40Y125D02*
X40Y123D01*
X1390Y123D01*
X1390Y125D01*
X40Y125D01*
G37*
D02*
G36*
X40Y125D02*
X40Y123D01*
X1390Y123D01*
X1390Y125D01*
X40Y125D01*
G37*
D02*
G36*
X40Y125D02*
X40Y123D01*
X1390Y123D01*
X1390Y125D01*
X40Y125D01*
G37*
D02*
G36*
X40Y123D02*
X40Y33D01*
X1390Y33D01*
X1390Y123D01*
X40Y123D01*
G37*
D02*
G36*
X3568Y2067D02*
X3611Y2067D01*
X3611Y2027D01*
X3568Y2027D01*
X3568Y2067D01*
G37*
D02*
G36*
X2068Y2067D02*
X2111Y2067D01*
X2111Y2027D01*
X2068Y2027D01*
X2068Y2067D01*
G37*
D02*
G36*
X2868Y2067D02*
X2911Y2067D01*
X2911Y2027D01*
X2868Y2027D01*
X2868Y2067D01*
G37*
D02*
G36*
X168Y547D02*
X211Y547D01*
X211Y505D01*
X168Y505D01*
X168Y547D01*
G37*
D02*
G36*
X130Y509D02*
X172Y509D01*
X172Y466D01*
X130Y466D01*
X130Y509D01*
G37*
D02*
G36*
X230Y1909D02*
X272Y1909D01*
X272Y1866D01*
X230Y1866D01*
X230Y1909D01*
G37*
D02*
G36*
X206Y1759D02*
X248Y1759D01*
X248Y1716D01*
X206Y1716D01*
X206Y1759D01*
G37*
D02*
G36*
X282Y1503D02*
X326Y1503D01*
X326Y1460D01*
X282Y1460D01*
X282Y1503D01*
G37*
D02*
G36*
X1217Y2019D02*
X1262Y2019D01*
X1262Y1977D01*
X1217Y1977D01*
X1217Y2019D01*
G37*
D02*
G04 End of Copper1*
M02*