; NON-PLATED HOLES START AT T1
; THROUGH (PLATED) HOLES START AT T100
M48
INCH
T1C0.118110
T100C0.042000
T101C0.035000
T102C0.031497
T103C0.041361
T104C0.040000
T105C0.038000
T106C0.041333
%
T1
X037852Y021164
X037833Y001886
X015018Y021164
X015018Y001886
T100
X006927Y021849
X009907Y021849
T101
X000907Y014790
X001907Y008849
X000907Y017349
X001907Y004849
X002679Y017349
X019907Y019849
X002679Y014790
X002907Y018849
X015907Y019849
X002907Y020849
X002907Y019849
T102
X001907Y010864
X001907Y011849
T103
X020907Y021849
X032907Y020849
X020907Y020849
X025907Y020849
X027907Y020849
X027907Y021849
X032907Y021849
X025907Y021849
T104
X001907Y003227
X001907Y001849
T105
X012408Y019565
X011407Y021849
X004534Y001853
X012407Y021849
X012407Y001849
X004533Y019565
T106
X024907Y021849
X028907Y021849
X031907Y020849
X024907Y020849
X035907Y020849
X034907Y020849
X033907Y021849
X033907Y020849
X026907Y021849
X021907Y020849
X029907Y021849
X022907Y020849
X023907Y020849
X028907Y020849
X019907Y021849
X022907Y021849
X019907Y020849
X023907Y021849
X031907Y021849
X018907Y021849
X021907Y021849
X018907Y020849
X017907Y021849
X016907Y021849
X030907Y020849
X016907Y020849
X035907Y021849
X029907Y020849
X026907Y020849
X034907Y021849
X017907Y020849
X030907Y021849
T00
M30
